Patient4_TMGait_0pt3_02_right_17_GRF.mot
version=1
nRows=65
nColumns=19
inDegrees=no
endheader
time	F1x	F1y	F1z	M1x	M1y	M1z	F2x	F2y	F2z	M2x	M2y	M2z	EC1x	EC1y	EC1z	EC2x	EC2y	EC2z
31.95	-9.5765	781.344	43.9879	-291.0739	-43.596	761.5873	-6.1627	17.5864	-2.9967	7.3762	3.4042	14.4253	-0.0592	0.0182	-0.0073	-0.0462	0.0165	0.9585
31.9701	-10.9887	797.3406	45.7045	-297.1844	-45.6304	774.2805	-4.9851	14.2106	-2.5456	5.8459	3.0857	11.7557	-0.0592	0.0182	-0.0073	-0.0462	0.0165	0.9585
31.9903	-12.1075	815.7708	47.3088	-304.2225	-47.345	788.4656	-3.6983	10.5409	-1.9442	4.2472	2.5269	8.8437	-0.0592	0.0182	-0.0073	-0.0462	0.0165	0.9585
32.0104	-12.638	834.8888	48.6471	-311.5235	-48.4839	802.4877	-2.4347	7.1106	-1.3046	2.7928	1.8433	6.1137	-0.0592	0.0182	-0.0073	-0.0462	0.0165	0.9585
32.0306	-12.3436	852.3382	49.6325	-318.1854	-48.8883	814.2086	-1.3568	4.2974	-0.7375	1.6233	1.1855	3.8723	-0.0592	0.0182	-0.0073	-0.0462	0.0165	0.9585
32.0507	-11.1004	865.4713	50.2391	-323.1855	-48.5079	821.3157	-0.53567	2.2197	-0.29231	0.77502	0.6361	2.2137	-0.0592	0.0182	-0.0073	-0.0462	0.0165	0.9585
32.0709	-8.9301	871.8315	50.4873	-325.5668	-47.3942	821.7582	0.026599	0.82593	0.023026	0.21811	0.22441	1.0968	-0.0592	0.0182	-0.0073	-0.0462	0.0165	0.9585
32.091	-5.992	869.712	50.4125	-324.6602	-45.6624	814.2311	0.36922	-0.030662	0.2258	-0.11288	-0.056352	0.40533	-0.0592	0.0182	-0.0073	-0.0462	0.0165	0.9585
32.1111	-2.5217	858.5807	50.0608	-320.2531	-43.4658	798.5016	0.54175	-0.5391	0.34169	-0.29833	-0.22897	-0.019496	-0.0592	0.0182	-0.0073	-0.0462	0.0165	0.9585
32.1313	1.2565	839.2998	49.4955	-312.677	-40.9713	775.5449	0.59246	-0.89809	0.39804	-0.42065	-0.3219	-0.35255	-0.0592	0.0182	-0.0073	-0.0462	0.0165	0.9585
32.1514	5.1689	814.0361	48.7991	-302.7742	-38.3412	747.4298	0.56511	-1.2954	0.42312	-0.55679	-0.36666	-0.7637	-0.0592	0.0182	-0.0073	-0.0462	0.0165	0.9585
32.1716	9.0986	785.896	48.0674	-291.7535	-35.7214	716.9714	0.49663	-1.8949	0.4416	-0.77248	-0.3952	-1.4044	-0.0592	0.0182	-0.0073	-0.0462	0.0165	0.9585
32.1917	12.9994	758.3949	47.3974	-280.9811	-33.2228	687.262	0.41976	-2.8204	0.46959	-1.1157	-0.4325	-2.3876	-0.0592	0.0182	-0.0073	-0.0462	0.0165	0.9585
32.2119	16.8678	734.8437	46.8593	-271.7412	-30.9002	661.1494	0.36368	-4.1312	0.51411	-1.6093	-0.49221	-3.762	-0.0592	0.0182	-0.0073	-0.0462	0.0165	0.9585
32.232	20.7173	717.7672	46.4909	-265.0098	-28.7632	640.7616	0.35616	-5.7894	0.57751	-2.2394	-0.58519	-5.4784	-0.0592	0.0182	-0.0073	-0.0462	0.0165	0.9585
32.2521	24.5686	708.5149	46.3074	-261.3027	-26.797	627.2004	0.4225	-7.6178	0.65528	-2.9369	-0.71532	-7.3531	-0.0592	0.0182	-0.0073	-0.0462	0.0165	0.9585
32.2723	28.4182	707.0472	46.3189	-260.5938	-24.9956	620.4067	0.58342	-9.2406	0.73359	-3.5563	-0.87412	-9.0098	-0.0592	0.0182	-0.0073	-0.0462	0.0165	0.9585
32.2924	32.2132	711.9629	46.5478	-262.3241	-23.3899	619.2132	0.85222	-10.0134	0.78577	-3.8503	-1.0385	-9.8019	-0.0592	0.0182	-0.0073	-0.0462	0.0165	0.9585
32.3126	35.8521	720.8137	47.0307	-265.5232	-22.0506	621.6168	1.2287	-8.9677	0.76629	-3.447	-1.1601	-8.751	-0.0592	0.0182	-0.0073	-0.0462	0.0165	0.9585
32.3327	39.1787	730.5744	47.796	-268.9975	-21.0733	625.1784	1.6929	-4.786	0.60582	-1.8408	-1.1581	-4.5188	-0.0592	0.0182	-0.0073	-0.0462	0.0165	0.9585
32.3529	41.9852	738.0841	48.8308	-271.5137	-20.5467	627.3757	2.1903	4.1523	0.21299	1.5901	-0.9161	4.5381	-0.0592	0.0182	-0.0073	-0.0462	0.0165	0.9585
32.373	44.0519	740.4367	50.0342	-271.9623	-20.4967	625.883	2.6167	19.6091	-0.51719	7.522	-0.28434	20.2085	-0.0592	0.0182	-0.0073	-0.0462	0.0165	0.9585
32.3931	45.2076	735.286	51.1872	-269.491	-20.8369	618.7991	2.7841	43.1596	-1.6912	16.5597	0.91919	44.096	-0.0592	0.0182	-0.0073	-0.0462	0.0165	0.9585
32.4133	45.3747	721.0273	51.978	-263.5661	-21.3684	604.7866	2.2956	75.722	-3.3921	29.0554	2.9315	77.1323	-0.0592	0.0182	-0.0073	-0.0462	0.0165	0.9585
32.4334	44.5879	696.8639	52.0745	-253.9793	-21.8229	583.1216	0.52423	116.9948	-5.6714	44.8903	6.0387	119.0114	-0.0592	0.0182	-0.0073	-0.0462	0.0165	0.9585
32.4536	42.9792	662.84	51.2259	-240.8336	-21.9466	553.7342	-2.7491	165.1607	-8.5687	63.3554	10.3548	167.8616	-0.0592	0.0182	-0.0073	-0.0462	0.0165	0.9585
32.4737	40.7382	619.9112	49.3359	-224.5521	-21.5757	517.2917	-7.0039	216.7521	-12.1158	83.1032	15.6987	220.0415	-0.0592	0.0182	-0.0073	-0.0462	0.0165	0.9585
32.4939	38.0777	569.9897	46.4666	-205.884	-20.6545	475.2601	-11.3666	267.9904	-16.1061	102.6849	21.5033	271.5413	-0.0592	0.0182	-0.0073	-0.0462	0.0165	0.9585
32.514	35.1841	515.6879	42.8156	-185.8035	-19.2391	429.7186	-15.0925	316.6783	-20.064	121.2808	26.9876	320.0113	-0.0592	0.0182	-0.0073	-0.0462	0.0165	0.9585
32.5341	32.1758	459.7512	38.6357	-165.3081	-17.451	382.9044	-17.6811	361.8298	-23.5281	138.5472	31.4957	364.4016	-0.0592	0.0182	-0.0073	-0.0462	0.0165	0.9585
32.5543	29.1165	404.6622	34.1728	-145.2827	-15.4278	336.873	-18.9079	403.0125	-26.1666	154.3456	34.6215	404.2958	-0.0592	0.0182	-0.0073	-0.0462	0.0165	0.9585
32.5744	26.0375	352.425	29.6605	-126.4215	-13.3196	293.3011	-18.8377	440.0765	-27.8652	168.6288	36.3001	439.6424	-0.0592	0.0182	-0.0073	-0.0462	0.0165	0.9585
32.5946	22.9698	304.4563	25.3142	-109.1941	-11.2735	253.3693	-17.7808	473.1056	-28.7409	181.4232	36.7972	470.6732	-0.0592	0.0182	-0.0073	-0.0462	0.0165	0.9585
32.6147	19.9536	261.569	21.319	-93.8485	-9.4197	217.7429	-16.2149	502.5441	-29.0331	192.8883	36.5595	497.9978	-0.0592	0.0182	-0.0073	-0.0462	0.0165	0.9585
32.6349	17.0131	224.0001	17.8133	-80.429	-7.8661	186.6	-14.6556	529.2856	-28.9554	203.359	36.0113	522.6623	-0.0592	0.0182	-0.0073	-0.0462	0.0165	0.9585
32.655	14.1468	191.4681	14.8683	-68.8046	-6.6837	159.6806	-13.5135	554.5047	-28.6324	213.2813	35.4341	545.9458	-0.0592	0.0182	-0.0073	-0.0462	0.0165	0.9585
32.6751	11.3159	163.3383	12.4858	-58.7304	-5.9015	136.4288	-13.0528	579.2409	-28.1642	223.0443	35.012	568.9385	-0.0592	0.0182	-0.0073	-0.0462	0.0165	0.9585
32.6953	8.4746	138.8648	10.6219	-49.934	-5.5127	116.1954	-13.3774	604.0199	-27.6999	232.8249	34.9044	592.1643	-0.0592	0.0182	-0.0073	-0.0462	0.0165	0.9585
32.7154	5.6304	117.3946	9.2113	-42.184	-5.4713	98.4113	-14.4144	628.7875	-27.4163	242.5641	35.2238	615.517	-0.0592	0.0182	-0.0073	-0.0462	0.0165	0.9585
32.7356	2.8489	98.3856	8.1547	-35.2968	-5.6761	82.6066	-15.9806	653.0963	-27.4488	252.0422	36.0022	638.4763	-0.0592	0.0182	-0.0073	-0.0462	0.0165	0.9585
32.7557	0.21736	81.3342	7.3104	-29.1083	-5.9809	68.3615	-17.8787	676.3948	-27.8448	260.9935	37.1875	660.4396	-0.0592	0.0182	-0.0073	-0.0462	0.0165	0.9585
32.7759	-2.161	65.8128	6.535	-23.4805	-6.234	55.3369	-19.9318	698.2078	-28.5965	269.1744	38.6953	680.9181	-0.0592	0.0182	-0.0073	-0.0462	0.0165	0.9585
32.796	-4.1338	51.5666	5.7264	-18.3316	-6.3012	43.3495	-22.0187	718.1194	-29.7055	276.3532	40.4761	699.5191	-0.0592	0.0182	-0.0073	-0.0462	0.0165	0.9585
32.8161	-5.4919	38.553	4.8334	-13.65	-6.0703	32.3916	-24.0662	735.6917	-31.1996	282.2871	42.5253	715.8631	-0.0592	0.0182	-0.0073	-0.0462	0.0165	0.9585
32.8363	-6.0284	26.9329	3.8521	-9.4919	-5.4667	22.6169	-25.9917	750.418	-33.1065	286.7212	44.8352	729.5005	-0.0592	0.0182	-0.0073	-0.0462	0.0165	0.9585
32.8564	-5.6666	17.02	2.8263	-5.9639	-4.5003	14.2923	-27.6478	761.776	-35.4139	289.432	47.339	739.9084	-0.0592	0.0182	-0.0073	-0.0462	0.0165	0.9585
32.8766	-4.6731	9.1872	1.8634	-3.1911	-3.3525	7.7242	-28.808	769.405	-38.0403	290.3139	49.8819	746.6188	-0.0592	0.0182	-0.0073	-0.0462	0.0165	0.9585
32.8967	-3.4694	3.5659	1.0714	-1.2126	-2.2629	3.0204	-29.2262	773.4447	-40.837	289.5158	52.2495	749.5679	-0.0592	0.0182	-0.0073	-0.0462	0.0165	0.9585
32.9169	-2.3243	-0.069895	0.48414	0.05754	-1.3585	-0.016819	-28.7442	774.8078	-43.6033	287.539	54.2205	749.418	-0.0592	0.0182	-0.0073	-0.0462	0.0165	0.9585
32.937	-1.3732	-2.1168	0.091202	0.76473	-0.68294	-1.7293	-27.3531	775.0817	-46.1125	285.1798	55.6078	747.506	-0.0592	0.0182	-0.0073	-0.0462	0.0165	0.9585
32.9571	-0.66742	-3.0145	-0.13973	1.0668	-0.23016	-2.4826	-25.181	776.1838	-48.1385	283.3697	56.2722	745.5337	-0.0592	0.0182	-0.0073	-0.0462	0.0165	0.9585
32.9773	-0.20532	-3.1683	-0.24917	1.1077	0.033212	-2.6091	-22.4471	779.8505	-49.4693	282.9512	56.1175	745.0939	-0.0592	0.0182	-0.0073	-0.0462	0.0165	0.9585
32.9974	0.045174	-2.9126	-0.27593	1.0057	0.15092	-2.3856	-19.4098	787.0973	-49.9305	284.4492	55.0895	747.168	-0.0592	0.0182	-0.0073	-0.0462	0.0165	0.9585
33.0176	0.13047	-2.4983	-0.25285	0.85095	0.16696	-2.0222	-16.3188	797.9384	-49.4206	287.9473	53.1892	751.8559	-0.0592	0.0182	-0.0073	-0.0462	0.0165	0.9585
33.0377	0.096953	-2.0995	-0.20302	0.70713	0.11689	-1.6697	-13.3624	811.3558	-47.95	293.0701	50.4892	758.3444	-0.0592	0.0182	-0.0073	-0.0462	0.0165	0.9585
33.0579	-0.012738	-1.8292	-0.14226	0.61638	0.029321	-1.4386	-10.6332	825.5354	-45.6416	299.0704	47.1189	765.1207	-0.0592	0.0182	-0.0073	-0.0462	0.0165	0.9585
33.078	-0.16179	-1.7573	-0.081543	0.60554	-0.074505	-1.4061	-8.1195	838.2095	-42.7321	304.9646	43.2622	770.2944	-0.0592	0.0182	-0.0073	-0.0462	0.0165	0.9585
33.0981	-0.32067	-1.926	-0.027249	0.6905	-0.17935	-1.615	-5.7524	847.0233	-39.5473	309.6853	39.1564	771.9399	-0.0592	0.0182	-0.0073	-0.0462	0.0165	0.9585
33.1183	-0.46186	-2.3528	0.015616	0.87572	-0.27005	-2.079	-3.4561	849.9344	-36.4456	312.2596	35.0686	768.4512	-0.0592	0.0182	-0.0073	-0.0462	0.0165	0.9585
33.1384	-0.55321	-3.019	0.041062	1.1521	-0.32741	-2.7773	-1.1666	845.5607	-33.7629	311.9773	31.2671	758.824	-0.0592	0.0182	-0.0073	-0.0462	0.0165	0.9585
33.1586	-0.55179	-3.8489	0.039444	1.4892	-0.3216	-3.636	1.1776	833.4773	-31.7423	308.5349	27.9595	742.8764	-0.0592	0.0182	-0.0073	-0.0462	0.0165	0.9585
33.1787	-0.39391	-4.685	-0.0019526	1.8249	-0.21002	-4.5068	3.6602	814.4081	-30.4743	302.1306	25.2226	721.3673	-0.0592	0.0182	-0.0073	-0.0462	0.0165	0.9585
33.1989	0.0068669	-5.2602	-0.099505	2.0539	0.059397	-5.1311	6.3741	790.2231	-29.8917	293.4599	22.9986	695.9703	-0.0592	0.0182	-0.0073	-0.0462	0.0165	0.9585
33.219	0.75246	-5.1705	-0.27139	2.0163	0.54502	-5.104	9.3627	763.6714	-29.8355	283.598	21.1666	669.0455	-0.0592	0.0182	-0.0073	-0.0462	0.0165	0.9585
33.2391	1.9409	-3.8545	-0.53366	1.4897	1.2993	-3.8596	12.5949	737.8577	-30.1257	273.7816	19.6129	643.2074	-0.0592	0.0182	-0.0073	-0.0462	0.0165	0.9585
